<svg data-v-fde0c5aa="" xmlns="http://www.w3.org/2000/svg" viewBox="0 0 300 300" class="icon"><!----><defs data-v-fde0c5aa=""><!----></defs><rect data-v-fde0c5aa="" fill="transparent" x="0" y="0" width="300px" height="300px" class="logo-background-square"></rect><!----><defs data-v-fde0c5aa=""><!----></defs><g data-v-fde0c5aa="" id="34c0580d-56c7-455d-bba9-1109c2f961e3" fill="#FFFFFF" stroke="none" transform="matrix(2.779532211656634,0,0,2.779532211656634,7.479473653771066,8.295971313865437)"><style></style><path d="M67.8 40.9c-.2-6.1-2.7-11.7-7-16-4.5-4.5-10.6-7-17-7s-12.5 2.5-17 7c-.1.1-.2.3-.3.4l.3-10v-.1-.3s0-.1-.1-.1c0-.1-.1-.1-.1-.2h-.1c-.1-.1-.1-.1-.2-.1 0 0-.1 0-.1-.1h-.1l-5.9-1.5c-.3-.1-.7 0-1 .3L12 20.4c-.2.2-.3.6-.3 1l1.5 5.9v.1s0 .1.1.1c0 .1.1.1.1.2v.1c.1.1.1.1.2.1h.1c.1 0 .2.1.4.1l10.4-.3c-7 9.4-6.3 22.8 2.3 31.4 4.3 4.3 10 6.8 16 7 .2 6.1 2.7 11.7 7 16 4.5 4.5 10.6 7 17 7s12.5-2.5 17-7c9.4-9.4 9.4-24.6 0-34-4.3-4.5-9.9-6.9-16-7.2zm-50.2-22l2.5.6-1.8 1.8-.7-2.4zm4.1 1.8l1.6 3.9-3.9-1.6 2.3-2.3zm-3.8 3.8l2.8 1.2-4.1.1 1.3-1.3zm5.3-5.3l1.4-1.4-.1 4.5-1.3-3.1zm-3.1-4.3l3.7.9-2.1 2.1-3.6-.9 2-2.1zm-4.5 4.4l.9 3.6-1.9 1.9-.9-3.7 1.9-1.8zm12.6 7c4.2-4.2 9.7-6.5 15.6-6.5s11.4 2.3 15.6 6.5c3.9 3.9 6.2 9.1 6.4 14.6-.5 0-1.1.1-1.6.1-.2-5.2-2.3-9.9-6-13.6-3.9-3.9-9-6-14.5-6s-10.6 2.1-14.5 6c-3.9 3.9-6 9-6 14.5s2.1 10.6 6 14.5c3.9 3.9 9.2 6 14.7 6h.4c2.1 0 4.6-.7 4.7-.7 3.4-.9 6.6-2.8 9.1-5.3 2.6-2.6 4.5-5.9 5.4-9.6.6-.1 1.1-.2 1.7-.2-.9 4.1-2.9 7.9-5.9 10.9-3.1 3.1-6.9 5.1-11.1 6-.9.1-3.4.5-4.5.5-5.9 0-11.4-2.3-15.6-6.5-8.5-8.6-8.5-22.6.1-31.2zm15 34c-4.8-.1-9.2-2-12.5-5.4-3.5-3.5-5.4-8.1-5.4-13.1 0-4.9 1.9-9.6 5.4-13.1 3.5-3.5 8.1-5.4 13.1-5.4s9.6 1.9 13.1 5.4c3.4 3.4 5.2 7.8 5.4 12.5-4.7.9-8.9 3.2-12.4 6.6-3.5 3.6-5.8 7.8-6.7 12.5zm6-.8c.9-2.9 2.4-5.5 4.6-7.6 2.2-2.2 4.8-3.7 7.7-4.6-.9 2.9-2.5 5.5-4.6 7.7-2.2 2.1-4.9 3.7-7.7 4.5zm18.2-13c4.7.1 9.2 2 12.5 5.4 3.5 3.5 5.4 8.1 5.4 13.1 0 4.9-1.9 9.6-5.4 13.1-7.2 7.2-18.9 7.2-26.1 0-3.3-3.4-5.3-7.8-5.4-12.5h.3c4.6-1 8.8-3.2 12.1-6.5 3.4-3.6 5.6-7.9 6.6-12.6zm15 34c-4.2 4.2-9.7 6.5-15.6 6.5s-11.4-2.3-15.6-6.5c-3.9-3.9-6.2-9.1-6.4-14.6.5 0 1.1-.1 1.6-.2.2 5.2 2.3 10 6 13.7 4 4 9.2 6 14.5 6s10.5-2 14.5-6c3.9-3.9 6-9 6-14.5s-2.1-10.6-6-14.5c-3.9-3.9-9-6-14.5-6s-10.6 2.1-14.5 6C49.8 53 48 56.2 47 59.8v.2c-.5.1-1.1.2-1.7.2.9-4.2 2.9-7.9 6-11 3.3-3.3 7.6-5.4 12.1-6.2.6-.1 1.2-.2 1.7-.2.6 0 1.2-.1 1.7-.1 5.9 0 11.4 2.3 15.6 6.5 8.6 8.8 8.6 22.7 0 31.3z"></path></g><!----></svg>